<?xml version="1.0" ?><!DOCTYPE svg  PUBLIC '-//W3C//DTD SVG 1.1//EN'  'http://www.w3.org/Graphics/SVG/1.1/DTD/svg11.dtd'><svg enable-background="new 0 0 24 24" height="24px" id="Layer_1" version="1.1" viewBox="0 0 24 24" width="24px" xml:space="preserve" xmlns="http://www.w3.org/2000/svg" xmlns:xlink="http://www.w3.org/1999/xlink"><path clip-rule="evenodd" d="M0,6.001C0,4.896,0.896,4,2,4h2V2c0-0.552,0.447-2,1-2h2c0.553,0,1,1.448,1,2v2h8  V2c0-0.552,0.447-2,1-2h2c0.553,0,1,1.448,1,2v2h2c1.104,0,2,0.896,2,2.001V8H0V6.001z M24,10.001V23c0,0-0.521,1.001-2,1.001H2  C0.427,24.001,0,23,0,23V10.001H24z" fill-rule="evenodd"/></svg>