<?xml version="1.0" ?><svg height="32px" version="1.1" viewBox="0 0 32 32" width="32px" xmlns="http://www.w3.org/2000/svg" xmlns:sketch="http://www.bohemiancoding.com/sketch/ns" xmlns:xlink="http://www.w3.org/1999/xlink"><title/><desc/><defs/><g fill="none" fill-rule="evenodd" id="Page-1" stroke="none" stroke-width="1"><g fill="#157EFB" id="icon-146-tag"><path d="M12,4 L3.99961498,4 C2.89525812,4 2,4.88743329 2,5.99961498 L2,14 L15.3809027,27.3809027 C16.1646418,28.1646418 17.433119,28.1668566 18.2115341,27.3884415 L25.3884415,20.2115341 C26.168017,19.4319586 26.1640508,18.1640508 25.3809027,17.3809027 L12,4 L12,4 Z M7.5,11 C8.32842717,11 9,10.3284272 9,9.5 C9,8.67157283 8.32842717,8 7.5,8 C6.67157283,8 6,8.67157283 6,9.5 C6,10.3284272 6.67157283,11 7.5,11 L7.5,11 Z" id="tag"/></g></g></svg>